<?xml version="1.0" encoding="UTF-8"?>
<svg id="_图层_2" data-name="图层 2" xmlns="http://www.w3.org/2000/svg" viewBox="0 0 128.83 52.21">
  <defs>
    <style>
      .cls-1, .cls-2 {
        fill-rule: evenodd;
      }

      .cls-1, .cls-3 {
        fill: #9e3312;
      }

      .cls-2, .cls-4 {
        fill: none;
      }

      .cls-4 {
        stroke: #9e3312;
        stroke-miterlimit: 10;
        stroke-width: .25px;
      }

      .cls-3 {
        font-family: AdobeSongStd-Light-GBpc-EUC-H, 'Adobe Song Std';
        font-size: 4.16px;
        font-weight: 300;
      }
    </style>
  </defs>
  <g id="logo">
    <g id="logo-2" data-name="logo">
      <g>
        <path class="cls-1" d="m2.1,8.52c-.51.59-.99.44-1.31.67-.24.12-.51.24-.79.32v3.99c.36-.67.28-2.18.24-3.32,3.52-1.15,6.64-.16,10.36-.67v-.32c-2.61-1.23-6.29-.2-8.5-.67Z"/>
        <path class="cls-1" d="m79.5,30.22c-.2-1.65-.9-2.98-1.45-4.2-.51-.12-1.1-.24-1.81-.2.35.39,1.06.55,1.61.63.39,1.18.86,2.59,1.45,3.57v.2h.2Z"/>
        <path class="cls-1" d="m68.74,26.13c-.12.43-.16.98-.16,1.69.27-.2.27-.27.67-.43.04-.55.08-.71.16-1.06-.27-.12-.31-.12-.67-.2Z"/>
        <path class="cls-1" d="m90.76,33.37c.19-1,.15-3.69-.15-4.3-.04-.19-.12-.42-.15-.61-.61-.54-1.38.08-2.23,0-.81-.08-3.03-1.04-3.99-.19h-.31c-.12.84.19,2.57.15,2.69-.15.42-.38.35-.46.61-.23.69.08,1.73-.15,2.27,0,1.73.19,4.19-.15,5.57-1.04-.27-.65-1-1.27-1.65-.19-.23-.65-.12-.81-.42-.19-.46,0-1.23-.15-1.65-1.08-2.77-2.84-5.22-3.8-8.03-.46-.12-1.27-.42-1.92-.19-.19.08-.27.5-.65.42-.23-.04-.58-.77-.81-.81-.77-.23-2.61-.08-3.49,0-.15,1.57-.5.92-.81,1.65-.58,1.42.19,4.22.15,5.34,0,.42-.27.77-.31,1.04-.04,2-.12,3.96-.15,5.95,0,1.31-.04,6.3,0,6.37.04.92.08,1,.65,1.23,1.23,1.04,3.92-.15,4.61-.61.27.54.61.81.96,1.23.38-.04.58-.04.81-.19.15-.08.31-.15.46-.19.04-2.73.23-6.18.31-8.41.04-.61-.54-.84-.31-1.84.19-.88.46-1.92.46-3.3h.31c.77,2.19,2,3.69,2.88,5.57.31.65.08,1.19.31,2.07.15.58,1.23,3,1.57,3.69.58,1.15,1.46,2.11,1.92,3.49,2.46,0,4.11.27,5.72-.81.46-1.5,0-2.27,0-3.49l.31-.42c.15-.84.04-2.27.15-2.88.31-1.88-.46-5.95-.15-7.18.08-.38.42-1.57.5-2Zm-20.57,4.27c.16-.16.04-.08.31-.2.12.51.12,1.88.31,2.32-.04.55-.08.71-.16,1.06h-.67c0-.98-.12-2.59.2-3.18Zm-.16,10.17c-.04-.59-.12-.31,0-.63,0-.59.08-.9.16-1.26h.67c.08.43.04.39.16.63.2.47.43.43.82.63-.35.94-1.02.86-1.81.63Zm1.45-17.68c-.51,0-.82-.08-1.14-.2.12-.86.39-1.33.67-2.08.51.24.59.51.98.82-.12.75-.27.86-.51,1.45Zm1.61-1.06s0,.43-.08.2v-.22h-.39c.08-.64.16-.61.31-1.04.39.27.12-.12.31.25h.16c-.12.69-.04.53-.31.81Zm11.89,10.09c0,1.06-.08,1.53-.31,2.12-.43-.04-.55-.08-.82-.2.16-1.02.55-1.49.67-3.01h.67v.39h-.04c-.08.49-.04.45-.16.69Zm4.87-7.34c-.16.16-.04.08-.31.2-.27-.94-.63-2.08-.67-2.51.59,0,1.1.04,1.45.2.04,1.1.16,1.77-.47,2.12Z"/>
        <path class="cls-1" d="m23.55,35.98v.08-.08h0Zm0,0v.08-.08h0Zm10.95-18.14c-1.77-3.18-5.14-1.69-5.93-5.3-.71-.12-1.3-.51-1.81-.67-1.88.12-3.77.24-5.65.31-.12-.04-.59-.94-.79-.98-1.06-.35-2.28.79-2.83.98-1.3.51-1.85-.75-2.55-.98-2.67-.98-5.06,1.22-7.18.67-1.41-.39-1.92-1.22-3.61-1.33-.27.24-1.02.43-1.3.67-.24.12-.51.24-.79.31-.08,2.32-.94,6.32-.24,8.95.24.9,1.26,2.04,1.02,3.65-.12.94-.86,2.16-1.02,2.98-.43,1.96-.12,4.32-.27,5.3-.27,2.2,1.22,3.81,0,5.65v6.95c.79,2.08,5.73,1.57,7.69.98,1.18-.35,1.41.27,2.32.67,2.47,1.02,9.7-.12,11.54-.67,2.04-.63,2.91,1.02,4.12,1.33,1.45.39,3.77-1.22,4.63-2,4.63-4.16,6.67-20.14,2.63-27.48Zm-30.42-1.65c-.27.27-.08.12-.51.31-.24-.35.04-.04-.27-.31-.04-2.36.24-2.55,1.02-3.65.79.31,1.53.67,2.32.98-.31,1.06-1.73,2.32-2.55,2.67Zm8.83,25.69c-.51.55-1.06.67-2.04.67.08-1.1.16-2.2.24-3.3h.27v-.31c1.3.39.94,1.45,1.81,2.32-.2.55-.08.27-.27.63Zm-2.16-5.38h1.3c-.08.31-.16.67-.24.98-.98-.24-.75.04-1.06-.98Zm13.65-1.49c-.11.39-.41,1.1-.67,1.49,0,.08-.04.16-.04.24-.15.24-.41.55-.52.82-.22.63-.04,1.65-.44,2.08-.11.12-1.03.59-1.15.63-.22,0-.41-.04-.63-.04-.04,0-.07-.04-.07-.04-.07-.08-.18-.16-.22-.2-.07-.08-.18-.04-.26-.08h0c-.12-.08-.24,0-.39-.12v-.08s-.16-.08-.16-.08h-.24v-.08c-.12,0-.27,0-.39-.04-.35-.04-.79-.04-.98-.12-.2,0-.39-.04-.59-.04v-.25s-.27,0-.39-.04c0-.04-.04-.04-.04-.22h-.35v.39h-.39v-.39h.39v-.13s-.71-.04-.86-.12l-.16-.14h-.16v-.1c-.27-.12-.47-.12-.67-.27-.04,0-.08-.16-.12-.16-.12-.08-.31-.08-.43-.2-.04-.04-.04-.12-.08-.16-.08-.08-.16-.04-.24-.08-.04-.04-.2-.22-.2-.22h.18-.12s.04-.04.04-.08c-.21-.16-.41-.31-.58-.51-.17-.16-.25-.51-.54-.59v-.12c-.21-.16-.29-.39-.41-.59-.08-.16-.29-.31-.37-.47v-.16s-.12-.04-.17-.08c-.12-.16-.08-.43-.21-.55h-.23c-.07-.08,0-.27-.04-.31,0-.04-.11-.04-.15-.08v-.15c-.04-.11-.26-.46-.33-.5-.18-.15-.48-.15-.66-.31-.44-.27-1.18-1.3-1.25-1.8h-.27c0-.21-.04-.39-.04-.39h-.14c0-.44-.24-.72-.36-1.04-.16-.44-.2-.92-.28-1.36,0-.16,0-.32.04-.52.04-.8.2-1.32.48-1.84.08-.24.2-.48.28-.68.16-.2.36-.4.52-.6.08-.12.12-.28.2-.4.12-.12.32-.16.4-.28.04-.04.12-.28.2-.36.04-.04.2-.04.24-.04.12-.08.2-.24.28-.32.44-.36.96-.6,1.44-.96-.12-.52-.64-1.08-.8-1.64-.08-.2.04-.36-.04-.56h-.05c-.11-.22-.11-1.76,0-1.98,0-.04.11-.04.11-.07.07-.11.04-.22.11-.37.04-.07.19-.19.22-.3.07-.11.04-.26.15-.37.07-.07.19,0,.3-.04l.11-.15c.19-.07,1.27.15,1.27.15h.12s.08.15.11.15c.23.15.61.42.83.8.15.27.19.57.04.91-.15.3-.34.64-.49,1.06-.15.45,0,1.1-.04,1.4h-.22c.33-.21.79-.25,1.2-.37.04,0,.08-.04.12-.04.46-.12.91-.21,1.37-.25,1.58-.17,3.19.08,4.27,1.12.83.79,1.99,2.4,2.32,3.61.08.25.12.7.08.99-.04.25-.12.5-.17.79.04.12.21.25.25.37.08.17.04.33.12.46.04,0-.38,0-.34,0,.07.12.07.27.15.39h.07c0,.08,0,.16.04.24l.18.16v.16s.11.04.15.08c.15.2.11.63.26.86,0,.04.04.04.04.08.74,1.22.89,3.53.41,5.18Zm2.68-12.01c-.27.24-.24.2-.79.31v-1.33c.27-.12.51-.24.79-.31v.31h.24c-.08.71-.04.67-.24,1.02Zm4.99,19.06c-.35,1.26-1.02,1.65-1.53,2.67-1.18.12-1.53.43-2.32-.31-.2-.2-.08,0,0-.31.63-1.69,1.92-.63,2.83-2.67.59.08.71.08,1.02.31.2.2.04,0,0,.31Zm-8.52-5.87s0,0,.04-.08h-.04v.08Z"/>
        <path class="cls-1" d="m57.83,28.87c-.31-.9-2.87-1.92-4.08-1.88.04,1.18,1.14.39,2.12.82,1.06.51,1.77,1.3,1.96,2.94.24-.43.24-1.49,0-1.88Z"/>
        <path class="cls-1" d="m28.81,11.03c.55.9.98.94,1.3,2.32.43.12.86.24,1.3.31v-.31h.27c-.47-1.14-1.81-2.04-2.87-2.32Z"/>
        <path class="cls-1" d="m42.4,27.63v.43c.39-.04.59-.04.82-.2h.16c-.27-.2-.55-.12-.98-.24Z"/>
        <path class="cls-1" d="m126.64,27.81c-.43-.12-.47-.24-.82,0-.47.04-.71.08-.98.2v.43c.55-.08,1.1-.16,1.61-.2.04.43.12.82.16,1.26.12-.24.24-.79.31-1.06-.12-.2-.2-.35-.27-.63Z"/>
        <path class="cls-1" d="m68.31,27.81v1.06c.2-.39.2-.71,0-1.06Z"/>
        <path class="cls-1" d="m55.25,39.72c.62-.31.7-.96.97-1.65h.46c.27-2.11.93-5.44,0-7.39-.31-.65-.93-1.03-1.27-1.65-.58-.08-1.16-.15-1.78-.19-.27.08-.42.57-.97.42-2.39-.73-6.83-.57-9.11.19-1,.34-1.51-.88-2.39-.19-.39.15-.35.23-.66.42-.12.73-.58,5.09-.15,6.78.08.34.54.84.46,1.42-.04.27-.46,1.07-.46,1.23-.27,1.88.89,4.52.31,5.55,0,1.03.04,1.19.66,1.42.46.23.85-.42,1.43.19,1.2,0,2.9.19,3.82-.19.12-.34.04-.19.15-.42v-5.03c.27-.12.16-.04.31-.2h3.1c.47.27,2.55,4.79,2.94,5.69.71.04,1.85.16,2.28-.2h.98c-.27-1.26-.73-.88-1.27-1.65-.27-.34,0-.92-.15-1.42-.15-.54-.77-1.61-1.12-2.03v-.8c.5.04,1.04.11,1.47-.31Zm1.12-6.45c-.24.51-.2.39-1.02.43v-.73h.39v-.1c.35.04.43.04.63.2.12.12.04,0,0,.2Zm-1.81-3.05v-.2c.98.04,1.02.29,1.51.86,0,.61-.08.94-.16,1.31h-.7c-.08-1.39-.41-1.19-.86-1.96h.2Zm-13.35,2.36v-2.88c.27.04.35.04.51.2.39.16.35.24.67.43-.2.47-.27.43-.39.63v1.63h-.79Zm1.18,11.74c-.12.2-.08.04-.16.43h-1.02v-.82c.2-.2.2-.16.32-.43.53.12.49.2.85.43v.39h0Zm5.3-13.99c.47.04.71.08.98.2v.43c-.27.12-.16.04-.31.2-.39-.04-.47-.04-.67-.2-.12-.39-.04-.16,0-.63Zm-1.57,1.06c-.31.63-.08,1.41-.16,1.88q-.39-.08-.67-.2c-.08-.55-.24-.98,0-1.45.08-.79.12-.79.31-1.26.55,0,.98.08,1.3.2-.2.55-.59.39-.79.82Zm.75,5.65c.04-1.22.24-3.61-.16-4.4v-.63c1.06-.27,3.1-.67,4.08.2.43.39.55.82.47,1.26.12,4.55-1.92,3.93-4.4,3.57Z"/>
        <path class="cls-1" d="m103.17,28.44c-.24.2-.55.2-.98.2.27.39.24.35.82.43.08.59,0,.67.16,1.06.12.35.04.2.16.43.08-.43.16-.75.31-1.06-.04-.86.08-.79-.47-1.06Z"/>
        <path class="cls-1" d="m110.27,30.66c-.35-.2-.89.16-1.28-.43-.5,0-.81.08-1.12.2-.04,2.16-.12,4.36-.15,6.52.12.43.7.9.46,1.88-.08.31-.54.71-.62,1.06v2.32c-.15.55-.31,1.14-.46,1.69-.81.24-3.25.63-4.03,0-.74-.12-.7-.27-1.12-.63,0-1.57-.7-2.55-.46-3.77.46-2.71,1.28-6.28.97-9.66h-.39v-.2c-1,.04-1.59.82-2.63.43-.8-.31-2.07-.79-3.31-.82-.16.16-.16.12-.48.2-.16,1.22.44,2.12.16,3.14-.84,3.38-.76,7.81-.64,11.35,1.12,1.49,1.79,2.91,3.62,3.57,1.87.67,3.58-.75,5.1-.2.8.27,2.23,1.1,3.31.2,1.63-.12,1.87-1.37,2.79-2.32.08-1.77.04-2.91.32-4.4v-4.4c.19-1.49.58-4.4-.04-5.73Zm-12.76,1.36c-.16.08-.31.16-.47.2-.2-.67-.31-1.37-.31-2.32.47.04.71.08.98.2.08.9.04,1.18-.2,1.92Zm2.75,10.09c-.16-.39-.08-.16,0-.63.43.04.55.08.82.2-.04.2-.12.43-.16.63-.16.08-.31.16-.47.2-.08-.12-.16-.27-.2-.39Zm2.47,3.24c-.57.04-1.23.04-1.51-.2h-.33c-.12-.74-.2-1.31,0-1.96h.49c.2,1.14.61,1.35,1.51,1.51-.04.25-.12.45-.16.65Zm6.13-12.77h-.12v-.39h-.35c.08-.72.08-.57.31-1,.59.55.43.51.16,1.39Z"/>
        <path class="cls-1" d="m113.41,29.07c0,.75.82.31,1.61.2-.27-.27-1.02-.24-1.61-.2Z"/>
        <path class="cls-1" d="m122.36,37.21c-.04-1.41-.12-2.79-.16-4.2,1.61-.04,2.63-.47,3.73-1.06-.04-.82-.12-1.69-.16-2.51h-.16v-.2c-1.26.12-2.2-.35-3.73.2-.16.04-.71.59-.82.63-.35.08-.47-.35-.67-.43-1.1.08-2.16.16-3.26.2-.9.27-2.91,1.14-3.73.43-.51,0-.82.08-1.14.2,0,.63,0,1.14.16,1.45,0,.75.04,1.41.16,1.88.9,0,.86-.16,1.3-.63.27-.12,1.14.39,2.12.43.08,1.85.35,4.08.63,5.46.16.79-.08,2.04-.16,2.51-.31,2,.16,5.14.67,6.28,1.22-.04,2.16-.55,2.94-.82.79-.27,1.41.55,2.12,0,.16-.08.31-.16.47-.2.39-2.79-.24-5.5-.67-7.97-.08-.67.27-1.22.35-1.65Zm1.81-7.08c.47.04.71.08.98.2-.04.16-.12.27-.16.43-.27.12-.16.04-.31.2-.31-.08-.31-.04-.47-.2-.2-.43-.12-.16-.04-.63Zm-7.66,2.51c.16-.47.16-.31.31-.63.47.04.71.08.98.2,0,.71-.04,1.26-.16,1.69-.39-.04-.47-.04-.67-.2-.2-.35-.2-.79-.47-1.06Zm.47,3.77c-.12-.86-.04-.98.16-1.45.39.16.35.24.63.43v.43c-.16.2-.24.35-.31.68h-.47v-.1Zm1.62,10.09c-.4-.04-.55-.04-.77-.18h-.29c-.07-.84-.04-.73,0-1.57h.15c.15-.15.15-.11.44-.18.07.95.26,1.02.77,1.35-.11.22-.18.4-.29.58Zm1.64-.18h-.9v-.79h.39v-.06c.35.08.39.12.63.2,0,.2-.04.39-.12.64Z"/>
        <path class="cls-1" d="m126.8,29.99v.63h.31c-.16-.47-.08-.31-.31-.63Z"/>
        <path class="cls-1" d="m79.93,30.89c.08.9.24.86.31,1.69h.31c-.08-.86-.24-1.26-.63-1.69Z"/>
        <path class="cls-1" d="m20.69,39.76c-.08-.07-.2-.04-.27-.07v-.16c-.12-.08-.24,0-.39-.12v-.08s-.16-.08-.16-.08h-.24v-.08c-.12,0-.27,0-.39-.04-.35-.04-.79-.04-.98-.12-.2,0-.39-.04-.59-.04,0-.04,0,.1,0,.1,0,0-.27,0-.39-.04,0-.04-.04-.04-.04-.18h-.35v.39h-.39v-.39h.39v-.13s-.71-.04-.86-.12l-.16-.14h-.16v-.1c-.27-.12-.47-.12-.67-.27-.04,0-.08-.16-.12-.16-.12-.08-.31-.08-.43-.2-.04-.04-.04-.12-.08-.16-.08-.08-.16-.04-.24-.08-.04-.04-.2-.22-.2-.22h-.04c0,.79-.04,1.57-.04,2.36h.24v.3c3.1-.04,3.34,1.12,5.65,1.27.24-.56.59-.93.94-1.27.12-.04,0-.11-.04-.19Zm2.87-19.42c-2.11-1.6-5.34-2.15-8.66-2.3t-.04.08c.16.27.2.59.04.94-.16.31-.35.66-.51,1.09-.16.47,0,1.13-.04,1.44h.04c.31-.2.74-.23,1.13-.35.04,0,.08-.04.12-.04.43-.12.86-.2,1.29-.23,1.48-.16,3,.08,4.02,1.05.78.74,1.87,2.26,2.18,3.39.08.23.12.66.08.94-.04.23-.12.47-.16.74.04.12.2.23.23.35.08.16.04.31.12.43h.08c.08.12.08.27.16.39h.08c0,.08,0,.16.04.24l.2.16v.15s.12.04.16.08c.16.2.12.62.27.86,0,.04.04.04.04.08.08-.23.16-.43.2-.59.2-.98-.78-7.96-1.05-8.89Z"/>
        <path class="cls-1" d="m103.25,31.48v1.88h.16c.08-.59.04-.59.16-.82-.04-.79.04-.71-.31-1.06Z"/>
        <path class="cls-1" d="m15.99,19.12c-.12.71-.08.67-.29,1.04v.91c.46-.12.91-.21,1.37-.25.37-.37.91-.67,2.16-.62v-.71c-1.08-.17-2.16-.25-3.24-.37Z"/>
        <path class="cls-1" d="m91.66,33.47c-.04,1.18-.12,2.39-.16,3.57.27-.55.47-2.94.16-3.57Z"/>
        <path class="cls-1" d="m112.12,34.15h-.31c.04.55.08.71.16,1.06.75-.08,1.53-.16,2.28-.2v-.63c-1.02.12-1.73.67-2.12-.24Z"/>
        <path class="cls-1" d="m115.02,34.31v.63h.31c-.16-.51-.08-.35-.31-.63Z"/>
        <path class="cls-1" d="m56.53,38.92v.72h.39v-.39h.24c-.2-.41.12-.06-.63-.33Z"/>
        <path class="cls-1" d="m56.53,40.08c-.55.27-.51.59-1.14.82-.12.35-.04.2-.16.43.08.75.2.82.31,1.45h.47c-.24-.59-.39-.86-.47-1.69.63-.08.59-.16.98-.43v-.59h0Z"/>
        <path class="cls-1" d="m47.93,41.22c-.24.57-.35.93-.31,1.91.39-.63.59-1.14.98-1.51h.47v-.39h-1.14Z"/>
        <path class="cls-1" d="m106.58,41.87c-.2.9-.35,1.14-1.14,1.26.04.16.12.27.16.43.67-.04.75-.16,1.14-.43,0-.55,0-.94-.16-1.26Z"/>
        <path class="cls-1" d="m64.5,42.73c-.71-.2-1.41-.43-2.12-.63-.55.51-1.57.86-2.12,1.26-.31,1.77-.24,2.75.31,4.2.59.2,1.49.82,2.28.63.59-.16.98-.86,1.45-.63.9-.24.82-.79,1.3-1.45-.08-1.77-.75-2.12-1.1-3.38Z"/>
        <path class="cls-1" d="m39.3,39.84c-.12.39-.16.75-.16,1.37h.16c.16-.51.27-.9,0-1.37Z"/>
        <path class="cls-2" d="m61.08,43.57c-.2.47-.27.47-.31,1.26.27.12.39.16.82.2.04-.47.12-.98.16-1.45h-.67Z"/>
        <path class="cls-1" d="m110.7,44.12v.63h.16c-.04-.43-.04-.39-.16-.63Z"/>
        <path class="cls-1" d="m91.47,44.47v1.45h.16c.12-.71.2-.9-.16-1.45Z"/>
        <path class="cls-1" d="m47.58,44.51c-.04.2-.12.43-.16.63h.31c-.04-.43-.04-.39-.16-.63Z"/>
        <path class="cls-1" d="m67.91,44.81v1.45c.2-.35.2-1.06,0-1.45Z"/>
        <path class="cls-1" d="m94.88,44.81c.04,1.3.31,1.49.9,1.88v-.38h0v-.02c-.24-.43-.43-1.06-.9-1.49Z"/>
        <path class="cls-1" d="m64.54,45.05c-.16.51-.31.86-.16,1.26v.2c.27-.12.16-.04.31-.2.24-.35.24-.43.31-1.06-.16-.08-.31-.16-.47-.2Z"/>
        <path class="cls-1" d="m110.47,45.68c-.27,1.3-1.26,1.85-2.12,2.32v.43c.47-.12.98-.31,1.3-.63.43-.27.67-.63.82-1.26.16-.39.16-.51,0-.86Z"/>
        <path class="cls-1" d="m51.98,46.44c.12.35.24.71.31,1.06.47.12,1.06.35,1.45,0h.31c-.24-.27-1.77-.94-2.08-1.06Z"/>
        <path class="cls-1" d="m42.99,47.56c-.67-.67-1.57.04-2.28-.2-.27-.08-.43-.51-.82-.63.08.43.04.39.16.63v.43c1.02-.12,1.96-.16,2.94-.24Z"/>
        <path class="cls-1" d="m123.27,46.93c-.04.2-.12.43-.16.63-.71.2-1.18.43-2.12.43.12.35.04.2.16.43,0,0,0,.43.16.2v-.2c.71,0,1.49,0,1.96-.2.08-.63.24-.82,0-1.3Z"/>
        <path class="cls-1" d="m59.59,46.99c.16.98.43,1.06.82,1.69h.82v-.2c-.71-.43-1.1-.98-1.65-1.49Z"/>
        <path class="cls-1" d="m96.65,47.22c.27.71.71.63,1.14,1.06h1.14v-.2c-.82-.24-1.61-.51-2.28-.86Z"/>
        <path class="cls-1" d="m67.91,47.54c0,1.14.12,1.61.31,2.32h.82c-.2-.75-.75-1.73-1.14-2.32Z"/>
        <path class="cls-1" d="m64.03,48.19c-.35.04-.04.31.16.43.16-.31-.12-.35-.16-.43Z"/>
        <path class="cls-1" d="m99.28,48.19c.24.35.12.24.47.43-.24-.55.08-.27-.47-.43Z"/>
        <path class="cls-1" d="m27.87,47.6c-.35.31-1.53.31-1.96.47v.47c1.3-.08,2.63-.16,3.93-.24-.43-.43-1.3-.63-1.96-.71Z"/>
        <path class="cls-1" d="m32.35,47.5c-.43.57-1.1.61-1.96.57.55.51,1.77.2,2.16-.18h.04v-.39h-.24Z"/>
        <path class="cls-1" d="m127.26,50.92c-.04-.08-.11-.2-.15-.28h-3.06v.08c-.41.04-.77.08-1.18.08v-.16h-.39v.39h-9.42v-.39h-.71c-.08.14,0,.22-.47.3-.04-.08-.12-.2-.16.1h-3.77v-.39h-.39v.08c-.41-.04-.77-.08-1.18-.08h-9.85c-.04.18-.16.39-.16.39h-.31l-.16-.39h-3.65v.39h-.39v.08c-.41-.04-.77-.08-1.18-.08v-.39h-9.93c-.04.18-.16.39-.16.39h-.31l-.16-.39h-3.57v.39h-.39v.08c-.41-.04-.77-.08-1.18-.08v-.39h-10.01c-.04.18-.16.39-.16.39h-.31l-.16-.39h-3.49v.39h-.39v.08c-.41-.04-.77-.08-1.18-.08v-.39h-10.09c-.04.18-.16.39-.16.39h-.39l-.16-.39h-3.34v.39h-.79v-.21c-.27-.04-.79-.08-.79-.08v-.1h-10.25c-.04.18-.16.39-.16.39h-.31l-.16-.39h-3.65v.39h-.39v.08c-.41-.04-.77-.08-1.18-.08v-.39h-9.97c-.04.18-.16.39-.16.39h-.31s-.12-.29-.16-.39h-3.93v.18c-.63-.08-1.69.21-1.69.21h-5.85s-2.47-.53-2.91-.33c-.82,0-.63.04-1.14.2,0,.35,0,.71.16.94,1.45.16,4.2.24,5.65,0,.55.04,1.06.08,1.61-.02h6.12c0,.1-.04.02.31.02.39,0,.63.2.86.08v-.08c.59-.04,1.18-.08,1.18-.08v.06h.39v.39h1.45s3.96-.45,4.83,0h2.43c1.49-.29,4.04-.45,4.99-.29.75.12,1.22-.27,1.61-.2v.1h1.92c1.41.06,3.96-.1,4.83,0h1.61c1.61.06,4.79-.1,5.81.06.75.12,1.22-.27,1.53-.2v.53l.39-.79v.39h4.51c.63-.02,1.3-.06,1.92-.06,1.41.24,5.34.2,6.79,0,.47.04.98.08,1.3.08v-.42h.79v.26c.2.04.43.08.79.08v.06h.82s3.22.1,4.36-.06c.82.04,1.61.08,2.43.06h4.51c.47-.02.98-.06,1.22-.06v.08c.98.12,1.96-.2,1.96-.2v-.22h.39v.39h3.58c.68-.04,1.4-.08,2.08-.08,1.36.2,3.56.08,5.22.08h2.08v-.08c.51.04,1.06.08,1.57.08v-.1s.55-.08,1.18-.08v-.22h0v.39h4.4c.63-.06,1.3-.1,1.92-.1,1.41.24,5.34.2,6.79,0,.47.04.98.08,1.41.08v-.38h.79v.22c.08.04.79.08.79.08v.1h5.1v-.08l2.78.08c2.44,0,4.73-.04,6.64-.08.15-.12-.04,0,.15-.08.11-.16.15-.57-.08-.73Zm-123.34.23c-.3.04-.59.08-.89.08-.04.08-.13.12-.17.2h-.51v-.27c.47-.04.89-.08,1.57-.08v.08Zm1.18-.12h-.39v.39h.39v-.39Zm14.53.12c-.3.04-.59.08-.89.08-.04.08-.13.12-.17.2h-.51v-.27c.47-.04.89-.08,1.57-.08v.08Zm1.18-.12h-.39v.39h.39v-.39Zm14.53.12c-.3.04-.59.08-.89.08-.04.08-.13.12-.17.2h-.51v-.27c.47-.04.89-.08,1.57-.08v.08Zm1.57-.12h-.39v.39h.39v-.39Zm14.53.12c-.3.04-.59.08-.89.08-.04.08-.13.12-.17.2h-.51v-.27c.47-.04.89-.08,1.57-.08v.08Zm1.26-.12h-.47v.39h.39v-.39h.08Zm14.45.12c-.3.04-.59.08-.89.08-.04.08-.13.12-.17.2h-.51v-.27c.47-.04.89-.08,1.57-.08v.08Zm1.18-.12h-.39v.39h.39v-.39Zm14.53.12c-.3.04-.59.08-.89.08-.04.08-.13.12-.17.2h-.51v-.27c.47-.04.89-.08,1.57-.08v.08Zm1.57-.12h-.39v.39h.39v-.39Zm14.13.12c-.3.04-.59.08-.89.08-.04.08-.13.12-.17.2h-.51v-.27c.47-.04.89-.08,1.57-.08v.08Zm1.57-.12h-.39v.39h.39v-.39Zm14.53.12c-.3.04-.59.08-.89.08-.04.08-.13.12-.17.2h-.51v-.27c.47-.04.89-.08,1.57-.08v.08Zm1.18-.12h-.39v.39h.39v-.39Z"/>
      </g>
      <g id="R">
        <circle class="cls-4" cx="126.68" cy="47.07" r="2.03"/>
        <text class="cls-3" transform="translate(125.37 48.42)"><tspan x="0" y="0">R</tspan></text>
      </g>
    </g>
    <g id="suqriall">
      <path class="cls-1" d="m96.84.58c-.33.21-.5.4-.7.58-.41.38-1.12,1.05-1.92.96-.11-.01-.19-.02-.31-.07-.38-.15-.57-.51-1.41-1.01-.23-.14-1.34-.78-2.85-.98-.55-.07-1.44-.12-2.52.12-.15.02-.3.05-.45.08-.3.06-.6.12-.88.19-.82.26-1.57.6-2.23,1.03-1.25.82-2.13,2.03-2.59,3.64-.07.25-.07.51-.13.77v.23c-.09.39-.03,1.08.06,1.44.06.23.05.42.11.64.25.81.58,1.41,1.03,2.01.19.25.65.76.95.86.08.05.73-.02.91.02.69.15,1.32.25,1.91.49.98.4,1.87.9,2.69,1.46.2.14.39.33.59.47.29.21.55.43.8.68.07.06.14.12.21.19.35.46.72.9,1.03,1.41.3.48.45,1.03.65,1.61.14.42.2.9.3,1.37.01.22.03.44.04.66.04.2.05.53.02.71-.05.31.03,1.03-.1,1.22v.11h-.02c-.05-.13,0-.29-.04-.45-.08-.34-.05-.7-.13-1.05-.18-.74-.28-1.5-.55-2.16-.22-.52-.42-1.07-.71-1.54-1.18-1.9-2.59-3.14-4.76-4.07-.8-.34-2.04-.83-2.97-.77-1.38.09-2.43.55-3.45.99-.67.29-1.32.59-1.92.96-.33.2-.68.38-1.01.58-.21.13-.43.3-.69.38-.17.05-.34-.04-.44-.07-.29-.11-.5-.26-.72-.43-.08-.06-.13-.15-.21-.21.03-.79-.11-1.46-.34-2.06-.07-.18-.2-.39-.25-.58-.18.06-.3.22-.44.32-.51.37-.8.99-1.14,1.52-.31.02-.58.16-.82.26-.4.17-.77.31-1.11.54-.21.15-.31.37-.48.56-.17.19-.35.37-.51.58-.11.14-.27.25-.38.39-.29.37-.61.7-.88,1.09-.25.36-.43.72-.55,1.24-.05.2-.03.53.08.64.06.15.69.34.86.43.38.19.65.44,1.12.54.27.06.71-.07.9-.13.49-.15.96-.19,1.47-.32.23-.06.59-.15.9-.07,1.31.33,2.45,1.42,3.24,2.29.38.42.85.81,1.14,1.29.06-.08.07-.5.04-.64-.1-.42-.16-.83-.29-1.2-.03-.09-.02-.18-.08-.24v-.07c.21.14.32.4.46.62.23.38.35.84.48,1.33.06.24,0,.47.06.73.04.17.06.7.02.9-.05.22,0,.46-.06.69-.04.23-.08.45-.11.68h-.02v.02c-.31,0-.64.06-.93.06-.27,0-.78.01-1.01.06-.38.07-.78.02-1.12.09-.15,0-.29.01-.44.02-.52.13-1.12.11-1.52.34.04.27.84.27,1.14.34.65.16,1.37.06,2.02.21.19.04.39,0,.55.04.29,0,.57.01.86.02.26.06.61-.03.9.04.12.03.33-.02.48.02.15.04.39-.02.57.02.26.06.7.04.97.04h1.11c.25.06.61.02.9.02h1.77c.51,0,1.02-.01,1.52-.02.32,0,.72.03.95-.02.21-.05.48.02.67-.02h.55c.42-.1.95.02,1.37-.07.29,0,.57-.01.86-.02.25-.06.53,0,.8-.06.22-.05.48,0,.72-.06.13-.03.29,0,.44-.04.6-.14,1.29-.1,1.75-.36-.03-.27-.8-.27-1.09-.34-.61-.15-1.34-.1-1.98-.21-.16-.03-.47,0-.67-.04-.23-.05-.49,0-.71-.04-.11-.03-.28.03-.36-.02h-.4v-.04c.7,0,1.46-.2,2.02-.38,1.93-.62,3.32-1.52,4.08-3.28.16-.38.24-.81.36-1.22.02-.13.04-.25.06-.38.07-.24.11-.52.15-.78-.01,0-.03-.01-.04-.02-.25-.13-.56-.29-.69-.44-.14-.07-.28-.15-.41-.22,0-.02.02-.04.03-.05-.08-.04-.17-.09-.25-.13,0-.02,0-.05,0-.07-.07-.04-.15-.08-.22-.12,0-.02.02-.04.03-.05-.07-.04-.15-.08-.22-.12,0-.02.02-.04.03-.05-.05-.02-.09-.05-.14-.07,0-.02.02-.04.03-.05-.06-.1-.17-.11-.25-.2,0,0-.05-.17-.05-.17-.06-.03-.11-.06-.17-.09,0-.02.02-.04.03-.05-.09-.15-.24-.23-.32-.38-.01-.02-.01-.13-.02-.15-.05-.09-.2-.18-.24-.27-.01-.03.02-.11,0-.14-.03-.07-.1-.08-.14-.14-.02-.04-.03-.2-.05-.24-.04-.02-.07-.04-.11-.06.02-.01.04-.03.06-.04-.09-.18-.18-.36-.24-.55-.05-.18-.02-.44-.18-.59.01-.03.03-.05.04-.08-.1-.17-.06-.37-.08-.57-.01-.14-.09-.33-.1-.47.02-.04.04-.07.06-.11,0-.04-.07-.07-.08-.11-.03-.14.09-.34.04-.47-.04-.02-.07-.04-.11-.06-.03-.08.1-.21.09-.23,0-.03-.08-.09-.08-.11.02-.04.04-.07.06-.11,0-.1-.05-.44-.08-.5-.09-.18-.3-.29-.42-.47-.24-.37-.47-1.4-.33-1.8-.03-.01-.06-.03-.08-.04,0,0,0-.02.02-.03,0,0,.02,0,.03.01,0-.05.01-.08.05-.15-.03-.01-.06-.03-.08-.04.16-.3.06-.6.08-.87.03-.36.17-.71.26-1.06.06-.12.13-.24.19-.35.31-.56.58-.86.95-1.15.15-.13.29-.27.43-.4.18-.08.4-.17.57-.26.11-.06.18-.16.29-.2.12-.04.29-.02.4-.07.05-.03.19-.17.29-.2.06-.01.16.03.18.06.11-.02.22-.12.33-.14.44-.11.91-.11,1.36-.19.09-.41-.09-.97-.04-1.43.02-.18.15-.24.15-.41-.02,0-.04-.02-.06-.03.05-.04.11-.08.16-.13.14-.39.5-.84.4-.95-.02-.02-.06-.02-.1,0,.11-.21.21-.38.27-.42.03-.02.09,0,.11-.01.11-.05.1-.16.2-.24.06-.05.22-.08.29-.13.07-.05.11-.13.16-.18-.13.05-.32.14-.53.28Zm-13.4,23.93c-.34.07-1,.1-1.11.38-.75,0-1.5.01-2.25.02-.22,0-.75.08-.91.02-.03-.01-.02,0-.04-.02.24-.16.44-.41.63-.62.64-.71,1.21-1.47,1.51-2.53.08-.29.08-.6.08-.96v-.43c.08-.36.08-.71.19-1.03.19-.56.48-1.04.8-1.46.14-.18.36-.31.5-.49h.04v.02c-.2.15-.47.75-.59,1.01-.2.44-.34.84-.48,1.37-.12.46,0,1.06.11,1.41.3.93.59,1.55,1.11,2.25.18.25.66.89.93.99-.07.11-.36.04-.51.08Z"/>
      <path class="cls-1" d="m126.68,17.49c-.12-.52-.3-.87-.55-1.24-.27-.39-.59-.72-.88-1.09-.11-.14-.27-.25-.38-.39-.16-.21-.34-.39-.51-.58-.17-.19-.27-.42-.48-.56-.33-.23-.71-.37-1.11-.54-.24-.1-.5-.25-.82-.26-.35-.53-.64-1.15-1.14-1.52-.14-.1-.26-.26-.44-.32-.05.2-.18.4-.25.58-.23.6-.37,1.27-.34,2.06-.08.06-.13.15-.21.21-.23.17-.43.32-.72.43-.1.04-.27.12-.44.07-.25-.07-.48-.25-.69-.38-.33-.21-.68-.38-1.01-.58-.61-.37-1.25-.67-1.92-.96-1.02-.44-2.07-.91-3.45-.99-.93-.06-2.17.43-2.97.77-2.17.93-3.59,2.17-4.76,4.07-.29.47-.49,1.02-.71,1.54-.27.66-.37,1.42-.55,2.16-.09.35-.05.71-.13,1.05-.04.16,0,.32-.04.45h-.02v-.11c-.13-.19-.05-.91-.1-1.22-.03-.19-.03-.51.02-.71.01-.22.03-.44.04-.66.11-.47.17-.95.3-1.37.19-.58.35-1.13.65-1.61.31-.51.68-.95,1.03-1.41.07-.06.14-.13.21-.19.25-.25.51-.46.8-.68.2-.14.39-.33.59-.47.82-.57,1.71-1.07,2.69-1.46.58-.24,1.22-.33,1.91-.49.19-.04.83.03.91-.02.3-.1.77-.62.95-.86.45-.6.78-1.2,1.03-2.01.07-.22.06-.41.11-.64.09-.36.15-1.05.06-1.44v-.23c-.06-.26-.06-.52-.13-.77-.46-1.61-1.34-2.82-2.59-3.64-.66-.43-1.41-.77-2.23-1.03-.28-.07-.57-.13-.88-.19-.15-.03-.3-.06-.45-.08-1.08-.24-1.97-.19-2.52-.12-1.51.2-2.62.84-2.85.98-.84.5-1.03.86-1.41,1.01-.12.05-.19.06-.31.07-.79.08-1.51-.58-1.92-.96-.2-.18-.37-.37-.7-.58-.21-.13-.4-.22-.53-.28.06.05.1.14.16.18.07.05.22.08.29.13.11.09.1.19.2.24.02.01.09-.01.11.01.06.04.16.21.27.42-.05-.01-.08-.01-.1,0-.11.11.25.56.4.95.05.05.11.09.16.13-.02,0-.04.02-.06.03,0,.17.13.23.15.41.05.46-.13,1.02-.04,1.43.44.08.92.09,1.36.19.11.03.22.12.33.14.02-.03.12-.08.18-.06.1.03.24.17.29.2.11.05.28.03.4.07.11.04.18.14.29.2.17.09.39.18.57.26.14.13.29.27.43.4.37.28.64.59.95,1.15.06.12.13.24.19.35.09.35.23.7.26,1.06.02.27-.07.57.08.87-.03.01-.05.03-.08.04.03.07.04.1.05.15,0,0,.02,0,.03-.01,0,0,0,.02.02.03-.03.01-.06.03-.08.04.14.39-.09,1.43-.33,1.8-.12.18-.33.29-.42.47-.03.06-.09.4-.08.5.02.04.04.07.06.11,0,.03-.08.09-.08.11,0,.03.12.15.09.23-.04.02-.07.04-.11.06-.05.13.07.33.04.47,0,.04-.08.07-.08.11.02.04.04.07.06.11-.01.15-.08.33-.1.47-.02.2.02.4-.08.57.02.03.03.05.04.08-.16.14-.12.41-.18.59-.06.19-.15.37-.24.55.02.01.04.03.06.04-.04.02-.07.04-.11.06-.02.03-.03.2-.05.24-.03.07-.11.08-.14.14-.01.03.02.11,0,.14-.05.1-.19.18-.24.27-.01.02-.01.13-.02.15-.08.16-.23.23-.32.38,0,.02.02.04.03.05-.06.03-.11.06-.17.09,0,0-.05.17-.05.17-.07.1-.18.1-.25.2,0,.02.02.04.03.05-.05.02-.09.05-.14.07,0,.02.02.04.03.05-.07.04-.15.08-.22.12,0,.02.02.04.03.05-.07.04-.15.08-.22.12,0,.02,0,.05,0,.07-.08.04-.17.09-.25.13.01.02.02.04.03.05-.14.07-.28.15-.41.22-.13.15-.44.3-.69.44-.01,0-.03.01-.04.02.05.27.09.55.15.78.02.13.04.25.06.38.12.41.2.84.36,1.22.76,1.77,2.15,2.66,4.08,3.28.56.18,1.32.37,2.02.38v.04h-.4c-.08.05-.25,0-.36.02-.21.05-.47-.01-.71.04-.2.04-.5,0-.67.04-.65.11-1.37.06-1.98.21-.29.07-1.06.06-1.09.34.47.25,1.15.22,1.75.36.14.03.31,0,.44.04.24.06.5,0,.72.06.27.06.55,0,.8.06.29,0,.57.01.86.02.42.09.95-.02,1.37.07h.55c.18.04.46-.03.67.02.23.05.63.02.95.02.51,0,1.02.01,1.52.02h1.77c.28,0,.65.04.9-.02h1.11c.28,0,.71.02.97-.04.18-.04.42.02.57-.02.15-.03.35.01.48-.02.28-.07.63.02.9-.04.29,0,.57-.01.86-.02.17-.04.37,0,.55-.04.65-.15,1.37-.05,2.02-.21.3-.07,1.1-.07,1.14-.34-.41-.22-1-.21-1.52-.34-.15,0-.29-.01-.44-.02-.35-.08-.75-.02-1.12-.09-.23-.05-.74-.06-1.01-.06-.29,0-.62-.06-.93-.06v-.02h-.02c-.04-.22-.08-.45-.11-.68-.05-.23,0-.48-.06-.69-.04-.2-.02-.73.02-.9.06-.26,0-.49.06-.73.13-.49.24-.96.48-1.33.13-.22.25-.48.46-.62v.07c-.05.07-.04.15-.08.24-.12.37-.19.78-.29,1.2-.03.14-.02.56.04.64.3-.49.77-.88,1.14-1.29.79-.87,1.92-1.96,3.24-2.29.3-.08.66.01.9.07.51.13.98.17,1.47.32.19.06.63.19.9.13.48-.11.75-.35,1.12-.54.17-.09.8-.28.86-.43.11-.11.12-.44.08-.64Zm-11.64,7.43c-.16.06-.7-.02-.91-.02-.75,0-1.5-.01-2.25-.02-.11-.28-.77-.3-1.11-.38-.15-.03-.44.04-.51-.08.28-.1.75-.75.93-.99.51-.71.8-1.32,1.11-2.25.11-.35.23-.95.11-1.41-.13-.53-.28-.93-.48-1.37-.12-.26-.39-.86-.59-1.01v-.02h.04c.14.18.36.31.5.49.32.43.61.91.8,1.46.11.32.11.67.19,1.03v.43c0,.35,0,.67.08.96.29,1.07.86,1.82,1.51,2.53.19.21.38.46.63.62-.02.02,0,0-.04.02Z"/>
    </g>
  </g>
</svg>